<svg id="visual" viewBox="0 0 900 600" width="900" height="600" xmlns="http://www.w3.org/2000/svg" xmlns:xlink="http://www.w3.org/1999/xlink" version="1.1"><path d="M0 314L15 310.5C30 307 60 300 90 294.8C120 289.7 150 286.3 180 286.5C210 286.7 240 290.3 270 299.7C300 309 330 324 360 316.2C390 308.3 420 277.7 450 271.5C480 265.3 510 283.7 540 299.8C570 316 600 330 630 338.5C660 347 690 350 720 353.8C750 357.7 780 362.3 810 364.5C840 366.7 870 366.3 885 366.2L900 366L900 0L885 0C870 0 840 0 810 0C780 0 750 0 720 0C690 0 660 0 630 0C600 0 570 0 540 0C510 0 480 0 450 0C420 0 390 0 360 0C330 0 300 0 270 0C240 0 210 0 180 0C150 0 120 0 90 0C60 0 30 0 15 0L0 0Z" fill="#00070e" stroke-linecap="round" stroke-linejoin="miter"></path></svg>